<svg id="svg" version="1.1" xmlns="http://www.w3.org/2000/svg" xmlns:xlink="http://www.w3.org/1999/xlink" width="400" height="400" viewBox="0, 0, 400,400"><g id="svgg"><path id="path0" d="M206.085 0.220 C 205.516 0.386,194.545 18.139,185.791 33.059 C 185.477 33.594,187.832 33.468,188.371 32.921 C 188.553 32.735,188.523 32.712,188.281 32.850 C 188.016 33.000,188.036 32.832,188.355 32.214 C 188.594 31.751,188.855 31.373,188.934 31.373 C 189.014 31.373,188.992 31.513,188.886 31.685 C 188.769 31.874,188.811 31.924,188.993 31.811 C 189.158 31.709,189.235 31.474,189.164 31.289 C 189.093 31.103,189.229 30.711,189.466 30.418 C 189.704 30.125,189.809 30.056,189.701 30.265 C 189.575 30.509,189.612 30.578,189.804 30.459 C 189.970 30.357,190.047 30.122,189.975 29.936 C 189.904 29.751,190.040 29.359,190.278 29.066 C 190.515 28.773,190.621 28.704,190.512 28.913 C 190.386 29.156,190.423 29.226,190.616 29.107 C 190.781 29.005,190.858 28.769,190.787 28.584 C 190.716 28.399,190.852 28.007,191.089 27.714 C 191.327 27.420,191.432 27.351,191.324 27.560 C 191.197 27.804,191.234 27.874,191.427 27.755 C 191.592 27.652,191.651 27.370,191.558 27.127 C 191.436 26.809,191.488 26.748,191.747 26.907 C 191.985 27.055,192.041 27.024,191.913 26.817 C 191.675 26.433,192.390 25.349,192.698 25.627 C 192.820 25.738,192.832 25.676,192.725 25.491 C 192.491 25.083,193.195 23.990,193.509 24.275 C 193.631 24.385,193.644 24.324,193.537 24.138 C 193.302 23.730,194.006 22.638,194.320 22.923 C 194.443 23.033,194.455 22.972,194.348 22.786 C 194.113 22.378,194.818 21.286,195.132 21.570 C 195.254 21.681,195.266 21.620,195.160 21.434 C 194.925 21.026,195.629 19.933,195.943 20.218 C 196.065 20.329,196.078 20.267,195.971 20.082 C 195.736 19.674,196.440 18.581,196.755 18.866 C 196.877 18.976,196.889 18.915,196.782 18.729 C 196.547 18.321,197.252 17.229,197.566 17.514 C 197.688 17.624,197.700 17.563,197.594 17.377 C 197.359 16.969,198.063 15.877,198.377 16.161 C 198.499 16.272,198.512 16.210,198.405 16.025 C 198.170 15.617,198.874 14.524,199.189 14.809 C 199.311 14.920,199.323 14.858,199.216 14.673 C 198.982 14.265,199.686 13.172,200.000 13.457 C 200.122 13.567,200.135 13.506,200.028 13.320 C 199.793 12.912,200.497 11.820,200.811 12.104 C 200.933 12.215,200.946 12.154,200.839 11.968 C 200.604 11.560,201.308 10.467,201.623 10.752 C 201.745 10.863,201.757 10.801,201.650 10.616 C 201.416 10.208,202.120 9.115,202.434 9.400 C 202.556 9.511,202.569 9.449,202.462 9.263 C 202.227 8.855,202.931 7.763,203.245 8.048 C 203.368 8.158,203.380 8.097,203.273 7.911 C 203.038 7.503,203.743 6.411,204.057 6.695 C 204.179 6.806,204.191 6.745,204.084 6.559 C 203.850 6.151,204.554 5.058,204.868 5.343 C 204.990 5.454,205.003 5.392,204.896 5.207 C 204.661 4.799,205.365 3.706,205.680 3.991 C 205.802 4.102,205.814 4.040,205.707 3.854 C 205.472 3.446,206.177 2.354,206.491 2.639 C 206.613 2.749,206.631 2.697,206.531 2.522 C 206.310 2.137,207.366 0.269,207.802 0.275 C 207.981 0.277,207.940 0.403,207.708 0.571 C 207.370 0.814,207.385 0.836,207.795 0.703 C 208.382 0.512,209.413 1.001,209.189 1.363 C 209.100 1.506,209.234 1.539,209.496 1.438 C 209.788 1.326,209.895 1.366,209.784 1.546 C 209.683 1.709,209.810 1.816,210.077 1.795 C 210.336 1.775,210.519 1.906,210.483 2.086 C 210.444 2.289,210.590 2.349,210.866 2.243 C 211.189 2.119,211.252 2.170,211.091 2.430 C 210.944 2.668,210.974 2.724,211.182 2.595 C 211.549 2.368,212.661 3.070,212.380 3.352 C 212.274 3.458,212.369 3.475,212.592 3.389 C 212.815 3.303,213.237 3.428,213.530 3.665 C 213.824 3.903,213.893 4.008,213.684 3.900 C 213.440 3.773,213.370 3.811,213.490 4.003 C 213.592 4.168,213.874 4.227,214.117 4.134 C 214.410 4.022,214.493 4.070,214.364 4.278 C 214.245 4.472,214.308 4.539,214.531 4.453 C 214.728 4.377,215.130 4.510,215.424 4.747 C 215.717 4.984,215.786 5.090,215.577 4.982 C 215.333 4.855,215.264 4.892,215.383 5.085 C 215.485 5.250,215.767 5.309,216.010 5.216 C 216.329 5.094,216.390 5.146,216.230 5.405 C 216.083 5.643,216.113 5.699,216.320 5.570 C 216.688 5.343,217.800 6.045,217.518 6.327 C 217.412 6.433,217.555 6.431,217.835 6.324 C 218.217 6.177,218.289 6.218,218.123 6.487 C 217.976 6.725,218.006 6.780,218.213 6.652 C 218.581 6.425,219.693 7.127,219.412 7.408 C 219.305 7.514,219.401 7.531,219.624 7.446 C 219.847 7.360,220.269 7.485,220.562 7.722 C 220.855 7.959,220.924 8.065,220.715 7.957 C 220.472 7.830,220.402 7.867,220.521 8.060 C 220.623 8.225,220.906 8.284,221.148 8.191 C 221.441 8.079,221.525 8.127,221.396 8.335 C 221.277 8.528,221.340 8.595,221.562 8.510 C 221.760 8.434,222.162 8.566,222.455 8.804 C 222.749 9.041,222.818 9.147,222.609 9.038 C 222.365 8.912,222.295 8.949,222.414 9.142 C 222.517 9.307,222.799 9.366,223.042 9.273 C 223.360 9.151,223.421 9.203,223.262 9.462 C 223.114 9.700,223.145 9.755,223.352 9.627 C 223.720 9.400,224.832 10.102,224.550 10.383 C 224.444 10.489,224.540 10.506,224.762 10.421 C 224.985 10.335,225.408 10.460,225.701 10.697 C 225.994 10.934,226.063 11.040,225.854 10.932 C 225.610 10.805,225.541 10.842,225.660 11.035 C 225.762 11.200,226.044 11.259,226.287 11.166 C 226.580 11.054,226.663 11.102,226.535 11.310 C 226.415 11.503,226.479 11.570,226.701 11.485 C 226.899 11.409,227.301 11.541,227.594 11.779 C 227.887 12.016,227.956 12.122,227.747 12.013 C 227.504 11.887,227.434 11.924,227.553 12.117 C 227.655 12.282,227.937 12.341,228.180 12.248 C 228.473 12.135,228.556 12.184,228.428 12.392 C 228.308 12.585,228.372 12.652,228.594 12.567 C 228.792 12.491,229.194 12.623,229.487 12.861 C 229.780 13.098,229.849 13.204,229.640 13.095 C 229.397 12.969,229.327 13.006,229.446 13.199 C 229.548 13.364,229.831 13.423,230.073 13.330 C 230.392 13.207,230.453 13.260,230.293 13.518 C 230.146 13.757,230.176 13.812,230.384 13.684 C 230.752 13.457,231.864 14.158,231.582 14.440 C 231.476 14.546,231.571 14.563,231.794 14.478 C 232.017 14.392,232.439 14.516,232.733 14.754 C 233.026 14.991,233.095 15.097,232.886 14.988 C 232.642 14.862,232.573 14.899,232.692 15.092 C 232.794 15.257,233.076 15.316,233.319 15.223 C 233.612 15.110,233.695 15.159,233.566 15.367 C 233.447 15.560,233.510 15.627,233.733 15.542 C 233.931 15.466,234.333 15.598,234.626 15.836 C 234.919 16.073,234.988 16.179,234.779 16.070 C 234.535 15.944,234.466 15.981,234.585 16.174 C 234.687 16.339,234.969 16.398,235.212 16.305 C 235.505 16.192,235.588 16.241,235.460 16.449 C 235.329 16.660,235.417 16.704,235.730 16.584 C 236.022 16.472,236.129 16.512,236.018 16.692 C 235.917 16.854,236.044 16.961,236.311 16.940 C 236.570 16.920,236.753 17.051,236.717 17.232 C 236.678 17.434,236.824 17.494,237.100 17.389 C 237.423 17.264,237.486 17.316,237.325 17.575 C 237.178 17.813,237.208 17.869,237.415 17.741 C 237.783 17.513,238.895 18.215,238.614 18.497 C 238.508 18.603,238.603 18.620,238.826 18.534 C 239.049 18.449,239.471 18.573,239.764 18.811 C 240.058 19.048,240.127 19.154,239.918 19.045 C 239.674 18.919,239.604 18.956,239.723 19.149 C 239.826 19.314,240.108 19.373,240.351 19.280 C 240.644 19.167,240.727 19.216,240.598 19.424 C 240.479 19.617,240.542 19.684,240.765 19.599 C 240.962 19.523,241.364 19.655,241.658 19.892 C 241.951 20.130,242.020 20.235,241.811 20.127 C 241.567 20.001,241.498 20.038,241.617 20.230 C 241.719 20.396,242.001 20.455,242.244 20.361 C 242.562 20.239,242.624 20.292,242.464 20.550 C 242.317 20.788,242.347 20.844,242.554 20.716 C 242.938 20.478,244.023 21.194,243.744 21.501 C 243.633 21.623,243.700 21.632,243.893 21.521 C 244.993 20.886,245.970 22.840,245.030 23.795 C 244.807 24.021,237.390 36.498,228.547 51.522 C 219.704 66.545,211.105 81.126,209.437 83.924 C 206.459 88.919,206.415 89.015,207.039 89.252 C 207.389 89.385,209.538 90.056,211.816 90.743 C 224.730 94.637,227.311 95.702,235.167 100.372 C 263.200 117.037,276.027 144.679,271.107 177.823 C 266.363 209.785,241.661 233.794,207.516 239.631 C 161.166 247.555,117.686 207.908,120.897 160.649 C 122.040 143.822,123.132 141.641,167.358 67.884 C 178.641 49.067,187.850 33.638,187.823 33.598 C 187.716 33.440,179.506 34.695,175.690 35.451 C 156.371 39.283,136.698 47.346,120.757 57.966 C 113.366 62.890,102.682 71.851,99.391 75.886 C 98.796 76.616,98.044 77.456,97.719 77.754 C 97.020 78.396,93.893 82.099,92.360 84.100 C 91.765 84.877,90.945 85.897,90.538 86.367 C 90.132 86.837,89.797 87.304,89.795 87.405 C 89.792 87.506,89.636 87.749,89.447 87.946 C 87.005 90.483,79.171 104.132,76.667 110.210 C 76.116 111.548,75.510 112.948,75.322 113.320 C 74.452 115.034,71.400 123.838,71.400 124.633 C 71.400 124.896,71.285 125.227,71.145 125.368 C 71.005 125.510,70.830 125.930,70.755 126.302 C 70.599 127.072,69.924 129.591,69.349 131.549 C 69.134 132.279,69.020 132.937,69.095 133.012 C 69.170 133.087,69.122 133.281,68.988 133.444 C 68.709 133.783,67.207 140.984,66.789 143.985 C 66.635 145.095,66.452 146.286,66.383 146.632 C 66.243 147.340,65.517 152.989,65.486 153.617 C 65.474 153.840,65.284 156.031,65.063 158.485 C 63.401 176.890,66.023 198.984,71.676 214.199 C 73.977 220.393,75.514 223.997,77.443 227.721 C 78.020 228.837,78.797 230.358,79.170 231.102 C 79.542 231.846,79.946 232.518,80.069 232.595 C 80.191 232.672,80.421 233.038,80.580 233.406 C 81.473 235.478,85.325 241.479,88.201 245.281 C 89.150 246.535,90.343 248.117,90.853 248.797 C 91.362 249.477,91.923 250.156,92.098 250.304 C 92.273 250.453,92.618 250.879,92.866 251.251 C 94.659 253.943,105.738 265.107,110.379 268.900 C 110.881 269.310,111.657 269.960,112.103 270.345 C 112.549 270.730,113.827 271.766,114.943 272.647 C 116.058 273.528,117.143 274.399,117.352 274.582 C 117.562 274.766,118.244 275.281,118.868 275.727 C 119.492 276.173,121.253 277.437,122.782 278.536 C 125.838 280.734,132.901 285.328,133.223 285.328 C 133.335 285.328,133.618 285.498,133.853 285.706 C 134.575 286.345,139.077 288.696,144.016 291.011 C 147.288 292.544,161.439 298.117,170.656 301.501 C 171.325 301.747,171.914 301.972,171.964 302.000 C 172.013 302.029,171.374 302.955,170.544 304.059 C 169.713 305.163,169.033 306.197,169.033 306.357 C 169.033 306.517,168.930 306.689,168.805 306.739 C 168.679 306.788,167.651 308.107,166.521 309.669 C 165.390 311.231,164.093 313.007,163.639 313.617 C 163.184 314.226,162.813 314.865,162.813 315.037 C 162.813 315.208,162.707 315.348,162.578 315.348 C 162.449 315.348,162.030 315.805,161.647 316.362 C 160.866 317.499,160.305 318.289,156.481 323.636 C 155.007 325.697,153.151 328.257,152.357 329.324 C 151.562 330.391,150.913 331.385,150.913 331.533 C 150.913 331.680,150.804 331.841,150.671 331.891 C 150.337 332.015,145.504 338.796,145.504 339.140 C 145.504 339.293,145.394 339.419,145.260 339.419 C 145.125 339.419,144.578 340.057,144.042 340.838 C 142.582 342.969,139.870 346.817,139.601 347.140 C 139.470 347.295,138.898 348.087,138.328 348.897 C 137.759 349.708,136.663 351.224,135.895 352.265 C 134.120 354.669,133.421 355.990,133.848 356.133 C 134.022 356.191,134.495 356.511,134.898 356.844 C 135.302 357.176,137.762 358.887,140.365 360.645 C 142.968 362.403,145.844 364.371,146.755 365.018 C 147.666 365.664,148.539 366.193,148.693 366.193 C 148.848 366.193,149.015 366.295,149.065 366.419 C 149.114 366.542,150.737 367.723,152.671 369.043 C 154.604 370.363,157.221 372.161,158.485 373.040 C 159.750 373.919,161.941 375.417,163.354 376.369 C 164.767 377.321,167.566 379.229,169.574 380.610 C 171.582 381.990,174.564 384.035,176.200 385.155 C 181.940 389.081,184.599 390.906,186.273 392.067 C 187.202 392.711,188.075 393.239,188.212 393.239 C 188.349 393.239,188.501 393.336,188.551 393.455 C 188.685 393.777,192.180 396.214,192.507 396.214 C 192.661 396.214,192.828 396.307,192.878 396.422 C 192.988 396.674,196.510 399.189,196.755 399.189 C 196.850 399.189,197.111 399.371,197.334 399.594 C 197.557 399.817,197.842 400.000,197.968 400.000 C 198.211 400.000,200.947 396.663,200.947 396.366 C 200.947 396.269,201.253 395.861,201.628 395.458 C 202.002 395.056,202.935 393.813,203.701 392.698 C 204.466 391.582,205.194 390.629,205.318 390.579 C 205.443 390.530,205.544 390.378,205.544 390.243 C 205.544 390.108,205.818 389.683,206.153 389.299 C 206.487 388.915,207.126 388.077,207.573 387.437 C 208.338 386.340,216.628 374.938,218.791 372.008 C 219.340 371.264,220.509 369.666,221.389 368.455 C 224.121 364.698,227.178 360.521,229.801 356.962 C 231.186 355.082,232.319 353.419,232.319 353.266 C 232.319 353.112,232.432 352.946,232.569 352.896 C 232.707 352.847,234.411 350.615,236.357 347.938 C 238.303 345.260,240.016 342.923,240.164 342.743 C 240.312 342.563,240.433 342.361,240.433 342.293 C 240.433 342.225,240.674 341.885,240.968 341.538 C 242.170 340.118,246.924 333.472,246.924 333.210 C 246.924 333.055,247.017 332.928,247.131 332.928 C 247.245 332.928,247.733 332.350,248.216 331.643 C 248.698 330.936,249.584 329.689,250.183 328.871 C 250.782 328.053,251.481 327.079,251.735 326.707 C 251.989 326.336,252.345 325.849,252.526 325.626 C 252.706 325.402,253.766 323.942,254.881 322.380 C 255.995 320.818,257.009 319.419,257.134 319.270 C 257.259 319.121,257.903 318.212,258.566 317.249 C 259.228 316.286,259.910 315.346,260.082 315.160 C 260.253 314.974,260.673 314.362,261.014 313.800 C 261.355 313.239,261.711 312.718,261.805 312.644 C 261.899 312.569,263.694 310.074,265.794 307.099 C 267.894 304.124,270.266 300.778,271.066 299.662 C 273.700 295.990,288.968 274.180,291.515 270.453 C 295.229 265.017,297.127 262.220,299.039 259.364 C 299.985 257.951,300.854 256.673,300.970 256.524 C 301.769 255.496,304.530 251.223,304.530 251.013 C 304.530 250.871,304.634 250.714,304.760 250.665 C 304.887 250.615,306.249 248.627,307.788 246.247 C 309.326 243.867,311.453 240.581,312.514 238.945 C 313.574 237.309,314.676 235.544,314.963 235.024 C 315.249 234.503,315.550 234.016,315.631 233.942 C 315.951 233.648,318.053 230.153,318.053 229.914 C 318.053 229.774,318.150 229.619,318.270 229.570 C 318.505 229.472,319.866 227.269,321.416 224.476 C 324.258 219.355,328.099 210.578,329.286 206.491 C 329.546 205.598,329.914 204.503,330.105 204.057 C 330.765 202.513,332.920 193.222,333.585 189.047 C 335.640 176.156,335.553 162.046,333.319 146.180 C 331.607 134.020,324.819 113.204,320.334 106.358 C 320.111 106.018,319.433 104.798,318.829 103.647 C 317.167 100.485,315.173 97.196,312.508 93.222 C 310.329 89.971,310.421 90.100,307.664 86.421 C 305.364 83.353,303.166 80.633,301.535 78.837 C 295.577 72.278,291.590 68.355,286.663 64.202 C 273.812 53.371,259.879 45.396,244.084 39.829 C 241.406 38.886,239.520 38.179,239.892 38.259 C 240.264 38.339,240.994 38.472,241.515 38.554 L 242.461 38.703 245.673 33.212 L 248.884 27.721 249.023 25.501 C 249.208 22.552,248.943 21.976,246.843 20.770 C 245.921 20.240,243.177 18.666,240.747 17.273 C 238.317 15.880,235.944 14.517,235.474 14.245 C 235.003 13.972,233.401 13.046,231.913 12.187 C 230.426 11.328,227.627 9.707,225.693 8.586 C 223.759 7.465,221.569 6.210,220.825 5.798 C 220.081 5.387,218.195 4.300,216.633 3.384 C 210.827 -0.021,211.285 0.174,208.925 0.095 C 207.735 0.055,206.457 0.112,206.085 0.220 " stroke="none" fill="#000000" fill-rule="evenodd"></path></g></svg>